# xmcd
#
# Track frame offsets: 
#        150
#        11579
#        22356
#        31706
#        43056
#        52625
#        62837
#        75454
#        86640
#        98423
#        110627
#        121734
#        130856
#        143838
#        157494
#        168422
#        178230
#        190391
#        201481
#        212962
#        222320
#        233874
#        246334
#        260018
#        272789
#
# Disc length: 3896 seconds
#
# Revision: 0
# Processed by: cddbd v1.5.2PL0 Copyright (c) Steve Scherf et al.
# Submitted via: ExactAudioCopy v0.99pb5
#
DISCID=750f3619
DTITLE=Various Artist - Pioneers Of Country Music - CD 3
DYEAR=2011
DGENRE=Country
TTITLE0=Sonny James - Young Love
TTITLE1=Ferlin Hysky Gone
TTITLE2=Webb Pierce - Honky Tonk Song
TTITLE3=Don Gibson - Oh Lonesome Me
TTITLE4=The Louvin Brothers - I Don't Believe You've Met My Baby
TTITLE5=Hank Thompson - Wake Up Irene
TTITLE6=Porter Wagoner - A Satisfied Mind
TTITLE7=Hank Locklin - Let Me Be the One
TTITLE8=Patsy Cline - A Poor Man's Roses
TTITLE9=Kitty Wells - Oh So Many Years
TTITLE10=Carl Smith - Ten Thousand Drums
TTITLE11=Frankie Laine - Rawhide
TTITLE12=Tennessee Ernie Ford - The Ballad Of Davy Crockett
TTITLE13=Elvis Presley - Lonesome Cowboy
TTITLE14=Hank Snow - Let Me Go, Lover!
TTITLE15=The Everly Brothers - Bird Dog
TTITLE16=Ray Price - The Same Old Me
TTITLE17=Stonewall Jackson - Waterloo
TTITLE18=Johnny Horton - The Battle Of New Orleans
TTITLE19=Jim Reeves - Billy Bayou
TTITLE20=Faron Young - Country Girl
TTITLE21=George Jones - White Lightning
TTITLE22=Johnny Cash - Don't Take Your Guns To Town
TTITLE23=The Browns - The Three Bells
TTITLE24=Marty Robbins
EXTD=
EXTT0=
EXTT1=
EXTT2=
EXTT3=
EXTT4=
EXTT5=
EXTT6=
EXTT7=
EXTT8=
EXTT9=
EXTT10=
EXTT11=
EXTT12=
EXTT13=
EXTT14=
EXTT15=
EXTT16=
EXTT17=
EXTT18=
EXTT19=
EXTT20=
EXTT21=
EXTT22=
EXTT23=
EXTT24=
PLAYORDER=
